<svg xmlns="http://www.w3.org/2000/svg" viewBox="0 0 2048 2048" width="30" height="30" fill="none">
  <path d="M 895.188 714.052 C 941.215 642.854 950.24 563.917 933.977 483.907 C 933.202 480.098 935.673 473.662 937.823 470.402 C 941.352 465.147 946.742 461.425 952.906 459.988 C 963.19 457.661 973.597 463.817 981.857 469.472 C 1005.68 485.782 1027.87 504.602 1049.1 523.959 C 1123.48 591.778 1176.52 672.123 1195.63 771.899 C 1199.35 791.319 1202.24 813.013 1202.04 832.842 C 1214.09 813.221 1226.91 787.547 1230.02 761.937 C 1231.66 748.516 1228.26 712.775 1261.05 726.584 C 1270.4 730.522 1283.72 755.965 1290.32 763.373 C 1335.69 829.32 1371.18 902.385 1385.3 981.682 C 1400.45 1066.81 1380.02 1162.39 1330.4 1233.35 C 1293.15 1286.62 1240.42 1333.01 1179.87 1357.81 C 1180.05 1362.53 1179.99 1364.28 1179.38 1368.96 L 1178.73 1363.11 C 1177.58 1365.59 1176.85 1368.51 1175.76 1370.22 L 1177.28 1371.28 C 1168.34 1371.24 1158.34 1373.12 1151.93 1368.62 C 1143.98 1371.19 1141.93 1371.97 1134.17 1369.19 L 1133.02 1368.5 C 1114.52 1349.16 1139.57 1340.81 1151.21 1329.5 C 1183.66 1298.01 1211.9 1252.92 1213.13 1206.47 C 1214.31 1199.45 1213.97 1190.94 1213.11 1183.89 C 1212.62 1143.28 1191.93 1095.29 1172.26 1059.77 C 1166.32 1049.05 1155.08 1026.62 1141.08 1026.37 C 1136.85 1026.29 1133.34 1030.07 1130.83 1033.1 C 1120.92 1046.94 1112.08 1060.7 1101.63 1074.23 C 1099.48 1023.36 1079.43 968.716 1054.23 924.722 C 1042.58 903.101 1017.92 865.226 1003.91 909.826 C 1001.3 918.161 996.476 929.798 992.878 938.064 C 949.296 1038.18 817.538 1092.83 835.942 1217.02 C 842.331 1260.13 862.663 1296.01 893.787 1326.22 C 901.211 1333.6 912.901 1341.1 918.73 1347.07 C 921.332 1349.72 922.799 1353.27 922.816 1356.98 C 922.809 1359.44 921.974 1361.83 920.446 1363.76 C 910.146 1376.94 892.792 1366.94 881.354 1362.72 C 840.809 1347.74 802.17 1324.4 770.513 1294.95 C 701.5 1231.61 661.263 1142.89 659.075 1049.24 C 656.348 962.254 687.243 880.349 733.488 807.798 C 763.091 761.099 798.027 715.814 815.481 662.677 C 820.034 648.815 817.673 621.58 838.678 622.103 C 865.446 622.768 890.665 694.409 895.188 714.052 z" fill="#FFFFFF"/>
</svg>