<svg xmlns="http://www.w3.org/2000/svg" viewBox="0 0 24 24" width="30" height="30" fill="none">
  <!-- Right footprint body -->
  <path d="M10 9c-1.3 0-2.3 1.2-2.3 2.8 0 1.2.8 2 1.3 3.2.5 1.2 0 2.5 0 3.5 0 1.7 1.3 3 3 3s3-1.3 3-3c0-1.7.5-3 0.5-5 0-2.5-1.2-4.5-3.5-4.5H10z" fill="#FFFFFF"/>
  <!-- Toes -->
  <circle cx="8.5" cy="5.5" r="1.6" fill="#FFFFFF"/>
  <circle cx="11.2" cy="4.8" r="1.3" fill="#FFFFFF"/>
  <circle cx="13.5" cy="5.2" r="1.1" fill="#FFFFFF"/>
  <circle cx="15.4" cy="6.2" r="0.9" fill="#FFFFFF"/>
  <circle cx="16.8" cy="7.5" r="0.7" fill="#FFFFFF"/>
</svg>
