<svg xmlns="http://www.w3.org/2000/svg" viewBox="0 0 24 24" width="30" height="30" fill="none">
  <!-- Sun core & rays in Black -->
  <circle cx="15.5" cy="9.5" r="3.5" fill="#000000"/>
  <path d="M15.5 4.5V3M20.5 9.5H22M19 6l1.1-1.1M12 6l-1.1-1.1M19 13l1.1 1.1" stroke="#000000" stroke-width="1.5" stroke-linecap="round"/>
  <!-- Cloud in White -->
  <path d="M7.5 17h8A2.5 2.5 0 0 0 18 14.5A2.5 2.5 0 0 0 15.5 12A3.5 3.5 0 0 0 9 12.5A2.5 2.5 0 0 0 5.5 14.5A2.5 2.5 0 0 0 7.5 17z" fill="#FFFFFF"/>
</svg>